<svg width="100%" height="100%" viewBox="0 0 36 44" version="1.1" xmlns="http://www.w3.org/2000/svg" xmlns:xlink="http://www.w3.org/1999/xlink" xml:space="preserve" style="fill-rule:evenodd;clip-rule:evenodd;stroke-linejoin:round;stroke-miterlimit:1.41421;"><clipPath id="_clip1"><rect id="Artboard1" x="0.076" y="0" width="35.65" height="43.775"/></clipPath><g clip-path="url(#_clip1)"><g><ellipse cx="17.9" cy="16.232" rx="9.18" ry="6.794" style="fill:#fff;"/><g><path d="M17.902,22.566c-4.823,0 -8.734,-2.836 -8.734,-6.335c0,-3.499 3.911,-6.333 8.734,-6.333c4.822,0 8.73,2.834 8.73,6.333c0,3.499 -3.908,6.335 -8.73,6.335M17.902,0c-9.847,0 -17.826,7.704 -17.826,17.208c0,9.503 7.979,26.567 17.826,26.567c9.843,0 17.823,-17.064 17.823,-26.567c0,-9.504 -7.98,-17.208 -17.823,-17.208" style="fill:#000;fill-rule:nonzero;"/><path d="M20.926,16.231c0,1.671 -1.353,3.025 -3.024,3.025c-1.671,0 -3.027,-1.354 -3.027,-3.025c0,-1.671 1.356,-3.023 3.027,-3.023c1.671,0 3.024,1.352 3.024,3.023" style="fill:#000;fill-rule:nonzero;"/></g></g></g></svg>